<svg width="500" height="500" viewBox="0 0 500 500" fill="none" xmlns="http://www.w3.org/2000/svg">
<path d="M240.91 122.329L240.91 122.33L240.91 122.33L244.863 127.953L248.995 122.46L248.995 122.459L248.996 122.459L248.999 122.455L249.017 122.431L249.098 122.324C249.121 122.294 249.148 122.258 249.179 122.218C249.247 122.13 249.332 122.018 249.436 121.884C249.738 121.493 250.192 120.912 250.786 120.165C251.976 118.67 253.727 116.515 255.955 113.903C260.414 108.674 266.759 101.637 274.3 94.401C289.616 79.7043 308.99 65.0526 327.113 61.8783C349.771 57.9095 383.584 62.0106 409.819 78.6739C429.876 91.4129 442.944 106.784 451.061 124.799C459.214 142.896 462.5 163.95 462.5 188.203C462.5 211.419 451.257 235.734 437.993 256.172C424.807 276.493 410.06 292.322 403.964 298.418C350.707 351.675 262.825 423.548 245.04 437.987C227.636 423.483 142.644 351.984 93.6858 298.575C92.9597 297.783 92.2405 296.998 91.5283 296.222C72.9955 276.012 59.1276 260.889 49.683 245.08C40.044 228.945 35 212.028 35 188.203C35 163.945 38.2611 142.849 46.4018 124.732C54.5043 106.7 67.5671 91.336 87.6637 78.6846C118.286 59.4073 142.737 57.6765 166.634 61.8778C184.11 64.9499 202.525 79.5195 217.051 94.2398C224.194 101.478 230.176 108.523 234.374 113.761C236.47 116.377 238.116 118.536 239.232 120.033C239.79 120.781 240.216 121.364 240.498 121.755C240.64 121.95 240.746 122.098 240.815 122.195L240.89 122.301L240.907 122.325L240.91 122.329Z" fill="white" stroke="black" stroke-width="10"/>
</svg>
